<svg xmlns="http://www.w3.org/2000/svg" width="21.942" height="26.111" viewBox="0 0 21.942 26.111">
  <path id="Icon_awesome-apple" data-name="Icon awesome-apple" d="M18.627,16.048A5.442,5.442,0,0,1,21.541,11.1,6.263,6.263,0,0,0,16.6,8.5c-2.069-.163-4.331,1.207-5.159,1.207-.874,0-2.88-1.148-4.454-1.148-3.253.052-6.71,2.594-6.71,7.765a14.529,14.529,0,0,0,.839,4.734c.746,2.139,3.439,7.386,6.249,7.3,1.469-.035,2.507-1.043,4.419-1.043,1.854,0,2.816,1.043,4.454,1.043,2.833-.041,5.27-4.809,5.981-6.955a5.779,5.779,0,0,1-3.6-5.357Zm-3.3-9.572a5.49,5.49,0,0,0,1.4-4.226,6.181,6.181,0,0,0-3.958,2.034,5.577,5.577,0,0,0-1.492,4.191A4.9,4.9,0,0,0,15.327,6.476Z" transform="translate(-0.281 -2.25)"/>
</svg>
