<svg xmlns="http://www.w3.org/2000/svg" width="31.197" height="35.653" viewBox="0 0 31.197 35.653">
  <path id="Icon_metro-attachment" data-name="Icon metro-attachment" d="M25.6,13.315l-2.261-2.26L12.033,22.361a4.8,4.8,0,0,0,6.785,6.784L32.389,15.577A8,8,0,0,0,21.081,4.271L6.832,18.517l-.031.029A11.152,11.152,0,0,0,22.574,34.316l.029-.031h0l9.726-9.724L30.066,22.3l-9.726,9.723-.029.029A7.953,7.953,0,1,1,9.062,20.809l.031-.029,0,0L23.342,6.531a4.8,4.8,0,1,1,6.786,6.784L16.557,26.884a1.6,1.6,0,1,1-2.262-2.26L25.6,13.315Z" transform="translate(-3.535 -1.928)" fill="#354579"/>
</svg>
