<svg id="certificate" xmlns="http://www.w3.org/2000/svg" width="19.307" height="19.307" viewBox="0 0 19.307 19.307">
  <ellipse id="Ellipse_169" data-name="Ellipse 169" cx="1.885" cy="1.885" rx="1.885" ry="1.885" transform="translate(7.787 11.181)" fill="#fff"/>
  <path id="Path_60328" data-name="Path 60328" d="M18.741,0H.566A.566.566,0,0,0,0,.566V14.14a.566.566,0,0,0,.566.566H7.142a3.016,3.016,0,1,1,5.061,0h6.538a.566.566,0,0,0,.566-.566V.566A.566.566,0,0,0,18.741,0ZM7.391,2.3h4.525a.566.566,0,1,1,0,1.131H7.391a.566.566,0,1,1,0-1.131ZM15.31,9.087H4A.566.566,0,1,1,4,7.956H15.31a.566.566,0,1,1,0,1.131Zm0-2.262H4A.566.566,0,1,1,4,5.694H15.31a.566.566,0,1,1,0,1.131Z" transform="translate(0 0)" fill="#fff"/>
  <path id="Path_60329" data-name="Path 60329" d="M196.749,398.521v3.671a.566.566,0,0,0,.878.471l1.394-.924,1.394.924a.566.566,0,0,0,.878-.471v-3.714A3.011,3.011,0,0,1,196.749,398.521Z" transform="translate(-189.33 -383.451)" fill="#fff"/>
</svg>
