<svg xmlns="http://www.w3.org/2000/svg" width="18.734" height="14.987" viewBox="0 0 18.734 14.987">
  <path id="Icon_awesome-crown" data-name="Icon awesome-crown" d="M15.455,13.114H3.278a.47.47,0,0,0-.468.468v.937a.47.47,0,0,0,.468.468H15.455a.47.47,0,0,0,.468-.468v-.937A.47.47,0,0,0,15.455,13.114Zm1.873-9.367a1.405,1.405,0,0,0-1.405,1.405,1.377,1.377,0,0,0,.129.58L13.933,7a.935.935,0,0,1-1.294-.34L10.254,2.488a1.405,1.405,0,1,0-1.774,0L6.094,6.662A.936.936,0,0,1,4.8,7L2.684,5.731a1.4,1.4,0,1,0-1.279.825,1.435,1.435,0,0,0,.225-.023l2.116,5.644h11.24L17.1,6.533a1.435,1.435,0,0,0,.225.023,1.405,1.405,0,1,0,0-2.81Z" fill="#354579"/>
</svg>
