<svg id="graduation-hat" xmlns="http://www.w3.org/2000/svg" width="25.163" height="21.499" viewBox="0 0 25.163 21.499">
  <g id="Group_66776" data-name="Group 66776" transform="translate(0 0)">
    <g id="Group_66775" data-name="Group 66775">
      <path id="Path_60326" data-name="Path 60326" d="M25.163,52.639a2.208,2.208,0,0,0-1.474-2.076V42.926l1.474-.608L12.581,37.27,0,42.318l12.581,5.048,9.633-3.848v7.045A2.2,2.2,0,0,0,22,54.628L20.778,58.3l1.4.466.775-2.326.775,2.326,1.4-.466L23.9,54.628A2.208,2.208,0,0,0,25.163,52.639Z" transform="translate(0 -37.27)" fill="#fff"/>
    </g>
  </g>
  <g id="Group_66778" data-name="Group 66778" transform="translate(5.947 9.021)">
    <g id="Group_66777" data-name="Group 66777">
      <path id="Path_60327" data-name="Path 60327" d="M127.635,223.484,121,220.82v1.925c0,2.1,2.852,3.686,6.635,3.686s6.635-1.584,6.635-3.686V220.82Z" transform="translate(-121 -220.82)" fill="#fff"/>
    </g>
  </g>
</svg>
