<svg xmlns="http://www.w3.org/2000/svg" width="16.539" height="13.136" viewBox="0 0 16.539 13.136">
  <g id="noun_Email_2116103" transform="translate(0 -17.49)">
    <path id="Path_6349" data-name="Path 6349" d="M2.706,39.013H13.833a3.049,3.049,0,0,0,2.706-3.3V29.18a3.96,3.96,0,0,0-.18-1.18,2.421,2.421,0,0,1-.875,1.2L9.31,33.556a1.765,1.765,0,0,1-2.081,0L1.055,29.192A2.417,2.417,0,0,1,.18,28,3.96,3.96,0,0,0,0,29.18v6.53a3.049,3.049,0,0,0,2.706,3.3Z" transform="translate(0 -8.387)" fill="#f8f9fb"/>
    <path id="Path_6350" data-name="Path 6350" d="M7.82,17.49a2.272,2.272,0,0,0-1.551.64q-.022.069-.037.141a1.409,1.409,0,0,0,.481,1.465L12.694,24.1a.851.851,0,0,0,1.032,0l5.983-4.362a1.409,1.409,0,0,0,.481-1.465q-.015-.072-.037-.141a2.272,2.272,0,0,0-1.551-.64Z" transform="translate(-4.94)" fill="#f8f9fb"/>
  </g>
</svg>
