<svg xmlns="http://www.w3.org/2000/svg" width="20.316" height="14.059" viewBox="0 0 20.316 14.059">
  <g id="Group_791425" data-name="Group 791425" transform="translate(-1267.911 -411)">
    <g id="Icon_ionic-ios-eye" data-name="Icon ionic-ios-eye" transform="translate(1265.659 404.125)">
      <path id="Path_256340" data-name="Path 256340" d="M12.4,7.875c-3.646,0-6.52,2.294-9.958,6.044a.717.717,0,0,0,0,.966c2.943,3.251,5.537,6.049,9.962,6.049,4.371,0,7.65-3.523,9.98-6.076a.711.711,0,0,0,.023-.939C20.025,11.04,16.738,7.875,12.4,7.875Zm.2,10.606a4.081,4.081,0,1,1,3.886-3.886A4.083,4.083,0,0,1,12.6,18.481Z"/>
      <path id="Path_256341" data-name="Path 256341" d="M16.4,14.271a2.131,2.131,0,0,1,.141-.766c-.045,0-.091,0-.141,0a2.9,2.9,0,1,0,2.9,2.9c0-.059,0-.118,0-.177a2.011,2.011,0,0,1-.825.177A2.105,2.105,0,0,1,16.4,14.271Z" transform="translate(-3.995 -1.997)"/>
    </g>
    <path id="Path_811571" data-name="Path 811571" d="M5.392,4.65a.52.52,0,0,0-.736.736L17.671,18.408a.516.516,0,0,0,.5.132.507.507,0,0,0,.234-.135.519.519,0,0,0,0-.732Z" transform="translate(1266.537 406.501)"/>
  </g>
</svg>
