<svg xmlns="http://www.w3.org/2000/svg" width="24" height="24" viewBox="0 0 24 24">
  <g id="Group_91" data-name="Group 91" transform="translate(-206 -270)">
    <g id="surface1" transform="translate(206 270)">
      <path id="Path_180" data-name="Path 180" d="M21.8,0H2.2A2.219,2.219,0,0,0,0,2.2V21.8A2.219,2.219,0,0,0,2.2,24H12V14H9V11h3V8c0-2.5,1-4,4-4h3V7H17.7A1.753,1.753,0,0,0,16,8.7V11h4l-.5,3H16V24h5.8A2.219,2.219,0,0,0,24,21.8V2.2A2.219,2.219,0,0,0,21.8,0Z" fill="#317fe5"/>
    </g>
  </g>
</svg>
