<svg xmlns="http://www.w3.org/2000/svg" width="22.365" height="19.569" viewBox="0 0 22.365 19.569">
  <path id="Icon_awesome-camera" data-name="Icon awesome-camera" d="M22.365,7.142v12.58a2.1,2.1,0,0,1-2.1,2.1H2.1a2.1,2.1,0,0,1-2.1-2.1V7.142a2.1,2.1,0,0,1,2.1-2.1H5.941l.537-1.437A2.094,2.094,0,0,1,8.439,2.25h5.482a2.094,2.094,0,0,1,1.961,1.358l.542,1.437h3.844A2.1,2.1,0,0,1,22.365,7.142Zm-5.941,6.29a5.242,5.242,0,1,0-5.242,5.242A5.246,5.246,0,0,0,16.424,13.432Zm-1.4,0a3.844,3.844,0,1,1-3.844-3.844A3.85,3.85,0,0,1,15.026,13.432Z" transform="translate(0 -2.25)" fill="#fff"/>
</svg>
