<svg id="Group_238169" data-name="Group 238169" xmlns="http://www.w3.org/2000/svg" width="14.574" height="13.976" viewBox="0 0 14.574 13.976">
  <path id="Path_6352" data-name="Path 6352" d="M18.453,24.678a2.209,2.209,0,0,0-3.121.157l-.481.531a2.2,2.2,0,0,0-.456.777l-.043.128-.126-.05a9.306,9.306,0,0,1-4.92-4.515l-.068-.136.146-.044a2.2,2.2,0,0,0,1-.634l.48-.531a2.21,2.21,0,0,0-.156-3.121L9.9,16.507a2.21,2.21,0,0,0-3.121.156l-.481.532a2.2,2.2,0,0,0-.177.223l-.022.024a2.691,2.691,0,0,0-.616,2.488A12.4,12.4,0,0,0,16.5,29.9a3.112,3.112,0,0,0,1.9-.4,2.22,2.22,0,0,0,.54-.435l.481-.532a2.212,2.212,0,0,0-.157-3.121Z" transform="translate(-5.417 -15.936)" fill="#fff"/>
</svg>
