<svg xmlns="http://www.w3.org/2000/svg" width="12.719" height="12.718" viewBox="0 0 12.719 12.718">
  <g id="noun_insta_3324511" transform="translate(-8.5 -8.5)">
    <g id="Group_237170" data-name="Group 237170" transform="translate(8.5 8.5)">
      <path id="Path_161679" data-name="Path 161679" d="M16.753,8.5H12.965A4.469,4.469,0,0,0,8.5,12.965v3.788a4.469,4.469,0,0,0,4.465,4.465h3.788a4.469,4.469,0,0,0,4.465-4.465V12.965A4.469,4.469,0,0,0,16.753,8.5Zm-1.894,9.319a2.96,2.96,0,1,1,2.96-2.96,2.96,2.96,0,0,1-2.96,2.96Zm3.8-5.783a.494.494,0,0,1-.081.068.628.628,0,0,1-.095.049.427.427,0,0,1-.1.03.466.466,0,0,1-.106.011.593.593,0,0,1-.208-.041.6.6,0,0,1-.092-.049.663.663,0,0,1-.084-.068.547.547,0,0,1-.157-.384.466.466,0,0,1,.011-.106.427.427,0,0,1,.03-.1.625.625,0,0,1,.049-.095.67.67,0,0,1,.068-.081.656.656,0,0,1,.084-.068.593.593,0,0,1,.092-.049.65.65,0,0,1,.1-.032.542.542,0,0,1,.487.149.489.489,0,0,1,.068.081.64.64,0,0,1,.051.095.611.611,0,0,1,.03.1.7.7,0,0,1,.011.106.538.538,0,0,1-.16.384Zm-3.8.674a2.148,2.148,0,1,0,2.148,2.148A2.148,2.148,0,0,0,14.859,12.71Zm-.262,1.4a.8.8,0,0,0-.533.75.406.406,0,1,1-.812,0,1.607,1.607,0,0,1,1.077-1.515.406.406,0,1,1,.268.766Z" transform="translate(-8.5 -8.5)" fill="#ff8a00"/>
    </g>
  </g>
</svg>
