<svg xmlns="http://www.w3.org/2000/svg" width="11.24" height="14.987" viewBox="0 0 11.24 14.987">
  <path id="Icon_awesome-clipboard-list" data-name="Icon awesome-clipboard-list" d="M9.835,1.873H7.494a1.873,1.873,0,1,0-3.747,0H1.405A1.405,1.405,0,0,0,0,3.278v10.3a1.405,1.405,0,0,0,1.405,1.405h8.43a1.405,1.405,0,0,0,1.405-1.405V3.278A1.405,1.405,0,0,0,9.835,1.873ZM2.81,12.411a.7.7,0,1,1,.7-.7A.7.7,0,0,1,2.81,12.411Zm0-2.81a.7.7,0,1,1,.7-.7A.7.7,0,0,1,2.81,9.6Zm0-2.81a.7.7,0,1,1,.7-.7A.7.7,0,0,1,2.81,6.791Zm2.81-5.62a.7.7,0,1,1-.7.7A.7.7,0,0,1,5.62,1.171ZM9.367,11.943a.235.235,0,0,1-.234.234H4.918a.235.235,0,0,1-.234-.234v-.468a.235.235,0,0,1,.234-.234H9.133a.235.235,0,0,1,.234.234Zm0-2.81a.235.235,0,0,1-.234.234H4.918a.235.235,0,0,1-.234-.234V8.665a.235.235,0,0,1,.234-.234H9.133a.235.235,0,0,1,.234.234Zm0-2.81a.235.235,0,0,1-.234.234H4.918a.235.235,0,0,1-.234-.234V5.854a.235.235,0,0,1,.234-.234H9.133a.235.235,0,0,1,.234.234Z" fill="#354579"/>
</svg>
