<svg xmlns="http://www.w3.org/2000/svg" width="26.905" height="26.894" viewBox="0 0 26.905 26.894">
  <path id="Icon_simple-cashapp" data-name="Icon simple-cashapp" d="M26.445,3.89A5.717,5.717,0,0,0,23.026.471C21.558,0,20.224,0,17.511,0H9.372A18.083,18.083,0,0,0,3.879.448,5.717,5.717,0,0,0,.46,3.879,17.7,17.7,0,0,0,0,9.372v8.15a18.083,18.083,0,0,0,.448,5.493,5.717,5.717,0,0,0,3.419,3.419,17.7,17.7,0,0,0,5.493.46h8.161a18.045,18.045,0,0,0,5.493-.448,5.717,5.717,0,0,0,3.43-3.43,17.7,17.7,0,0,0,.46-5.493V9.394c0-2.7,0-4.047-.46-5.5ZM19.529,9.08l-1.043,1.043a.561.561,0,0,1-.751.011,5.605,5.605,0,0,0-3.61-1.323c-1.087,0-2.175.359-2.175,1.356s1.166,1.345,2.511,1.85c2.354.785,4.3,1.771,4.3,4.081,0,2.511-1.951,4.238-5.134,4.428l-.291,1.345a.549.549,0,0,1-.538.437H10.8l-.1-.011a.561.561,0,0,1-.426-.661l.314-1.424a7.332,7.332,0,0,1-3.229-1.76v-.011a.538.538,0,0,1,0-.762l1.121-1.087a.549.549,0,0,1,.751,0,5.421,5.421,0,0,0,3.8,1.48c1.457,0,2.433-.617,2.433-1.592s-.987-1.233-2.847-1.928c-1.973-.706-3.845-1.7-3.845-4.036,0-2.713,2.253-4.036,4.921-4.159l.28-1.379a.538.538,0,0,1,.538-.426h2l.112.011a.537.537,0,0,1,.415.639l-.3,1.536A8.413,8.413,0,0,1,19.506,8.3l.022.022a.534.534,0,0,1,0,.762Z" fill="#c2c7d6"/>
</svg>
