<svg xmlns="http://www.w3.org/2000/svg" width="29.061" height="28.929" viewBox="0 0 29.061 28.929">
  <path id="Icon_material-business-center" data-name="Icon material-business-center" d="M14.624,25.393V23.786H4.468l-.015,6.429a3.061,3.061,0,0,0,2.906,3.214H27.7a3.061,3.061,0,0,0,2.906-3.214V23.786H20.437v1.607Zm14.53-14.464H23.328V7.714L20.422,4.5H14.61L11.7,7.714v3.214h-5.8A3.081,3.081,0,0,0,3,14.143v4.821a3.061,3.061,0,0,0,2.906,3.214h8.718V18.964h5.812v3.214h8.718a3.081,3.081,0,0,0,2.906-3.214V14.143A3.081,3.081,0,0,0,29.155,10.929Zm-8.718,0H14.624V7.714h5.812Z" transform="translate(-3 -4.5)" fill="#c2c7d6"/>
</svg>
