<svg xmlns="http://www.w3.org/2000/svg" width="23.009" height="23.009" viewBox="0 0 23.009 23.009">
  <path id="Icon_awesome-pen-nib" data-name="Icon awesome-pen-nib" d="M6.139,6.237A2.876,2.876,0,0,0,4.192,8.1L0,20.672l.66.66,6.746-6.746A2.177,2.177,0,1,1,8.422,15.6L1.677,22.348l.66.66,12.577-4.192a2.876,2.876,0,0,0,1.858-1.946l1.923-6.8L12.942,4.314Zm16.238-2.9-2.7-2.7a2.158,2.158,0,0,0-3.052,0L14.082,3.173l5.753,5.753,2.541-2.541A2.158,2.158,0,0,0,22.377,3.333Z" transform="translate(0 0)" fill="#c2c7d6"/>
</svg>
