<svg xmlns="http://www.w3.org/2000/svg" width="14.527" height="20.207" viewBox="0 0 14.527 20.207">
  <g id="medal" transform="translate(0)">
    <path id="Path_60330" data-name="Path 60330" d="M82.458,14.162l.924-1.5,1.668-.569.185-1.751,1.255-1.235-.6-1.658.6-1.658L85.234,4.556,85.049,2.8l-1.668-.569-.924-1.5L80.71.947,79.225,0,77.741.948,75.993.737l-.924,1.5L73.4,2.8l-.185,1.751L71.962,5.791l.6,1.658-.6,1.658,1.255,1.235.185,1.751,1.668.569.924,1.5,1.748-.211,1.485.948,1.485-.948ZM74.117,7.449a5.108,5.108,0,1,1,5.108,5.108A5.114,5.114,0,0,1,74.117,7.449Z" transform="translate(-71.962 0)" fill="#fff"/>
    <path id="Path_60331" data-name="Path 60331" d="M160.513,89.333a3.923,3.923,0,1,0,3.923,3.923A3.928,3.928,0,0,0,160.513,89.333Z" transform="translate(-153.25 -85.807)" fill="#fff"/>
    <path id="Path_60332" data-name="Path 60332" d="M85.673,344.194l-2.079.251-1.1-1.783-.373-.127-1.611,5.035,2.9-.16,2.269,1.813,1.335-4.173Z" transform="translate(-80.174 -329.016)" fill="#fff"/>
    <path id="Path_60333" data-name="Path 60333" d="M271.22,342.662l-1.1,1.783-2.079-.251-1.342.856,1.335,4.173,2.269-1.813,2.9.16-1.611-5.035Z" transform="translate(-259.015 -329.016)" fill="#fff"/>
  </g>
</svg>
