<svg xmlns="http://www.w3.org/2000/svg" width="18.461" height="16.16" viewBox="0 0 18.461 16.16">
  <g id="noun_payment_1698414" transform="translate(0 -3.997)">
    <path id="Path_441696" data-name="Path 441696" d="M18.432,9.047,15.74,16.665a.577.577,0,0,1-.427.369V11.411a1.731,1.731,0,0,0-1.731-1.731H3.252l1.942-5.3a.577.577,0,0,1,.733-.346l12.154,4.3A.577.577,0,0,1,18.432,9.047Zm-4.273,2.363v8.169a.577.577,0,0,1-.577.577h-13A.577.577,0,0,1,0,19.579V11.411a.577.577,0,0,1,.577-.577h13A.577.577,0,0,1,14.159,11.411ZM4.925,13.269a.577.577,0,0,0-.577-.577H2.424a.577.577,0,0,0-.577.577v1.31a.577.577,0,0,0,.577.577H4.348a.577.577,0,0,0,.577-.577Z" transform="translate(0 0)" fill="#354579"/>
  </g>
</svg>
