<svg id="portfolio" xmlns="http://www.w3.org/2000/svg" width="22.255" height="19.56" viewBox="0 0 22.255 19.56">
  <path id="Path_60334" data-name="Path 60334" d="M211,240h3.912v1.3H211Zm0,0" transform="translate(-201.828 -229.568)" fill="#fff"/>
  <path id="Path_60335" data-name="Path 60335" d="M18.055,85.782H14.388v.652a.652.652,0,0,1-.652.652H8.52a.652.652,0,0,1-.652-.652v-.652H4.2a1.954,1.954,0,0,1-1.855-1.337L0,77.41V91.65a1.958,1.958,0,0,0,1.956,1.956H20.3a1.958,1.958,0,0,0,1.956-1.956V77.411l-2.345,7.034A1.953,1.953,0,0,1,18.055,85.782Zm0,0" transform="translate(0 -74.046)" fill="#fff"/>
  <path id="Path_60336" data-name="Path 60336" d="M38.423,0H33.207a1.958,1.958,0,0,0-1.956,1.956v.652H25.809l2.459,7.378a.652.652,0,0,0,.619.446h3.668V9.78a.652.652,0,0,1,.652-.652h5.216a.652.652,0,0,1,.652.652v.652h3.668a.652.652,0,0,0,.619-.446l2.459-7.378H40.379V1.956A1.958,1.958,0,0,0,38.423,0ZM32.555,2.608V1.956a.652.652,0,0,1,.652-.652h5.216a.652.652,0,0,1,.652.652v.652Zm0,0" transform="translate(-24.687)" fill="#fff"/>
</svg>
