<svg xmlns="http://www.w3.org/2000/svg" width="14.904" height="11.922" viewBox="0 0 14.904 11.922">
  <g id="Page-1" transform="translate(0 -0.001)">
    <g id="Dribbble-Light-Preview" transform="translate(0 0.002)">
      <g id="icons">
        <path id="twitter-_154_" data-name="twitter-[#154]" d="M8.687,7372.924a8.572,8.572,0,0,0,8.7-8.562c0-.134,0-.261-.009-.4a6.159,6.159,0,0,0,1.525-1.557,6.228,6.228,0,0,1-1.756.477,3.043,3.043,0,0,0,1.344-1.669,6.05,6.05,0,0,1-1.942.73,3.1,3.1,0,0,0-4.327-.126,2.982,2.982,0,0,0-.885,2.876,8.761,8.761,0,0,1-6.3-3.145,2.984,2.984,0,0,0,.947,4.016A3.107,3.107,0,0,1,4.6,7365.2v.038a3.032,3.032,0,0,0,2.453,2.951,3.093,3.093,0,0,1-1.38.044,3.051,3.051,0,0,0,2.856,2.094,6.132,6.132,0,0,1-3.8,1.29c-.243,0-.486-.015-.728-.037a8.812,8.812,0,0,0,4.687,1.349" transform="translate(-4 -7361.002)" fill="#dcdcdc" fill-rule="evenodd"/>
      </g>
    </g>
  </g>
</svg>
