<svg xmlns="http://www.w3.org/2000/svg" width="44.527" height="59.369" viewBox="0 0 44.527 59.369">
  <path id="Icon_awesome-file-upload" data-name="Icon awesome-file-upload" d="M25.974,15.77V0H2.783A2.776,2.776,0,0,0,0,2.783v53.8a2.776,2.776,0,0,0,2.783,2.783H41.744a2.776,2.776,0,0,0,2.783-2.783V18.553H28.757A2.791,2.791,0,0,1,25.974,15.77Zm7.558,25.047H25.974v9.276a1.855,1.855,0,0,1-1.855,1.855H20.408a1.855,1.855,0,0,1-1.855-1.855V40.817H10.995a1.856,1.856,0,0,1-1.307-3.173l11.18-11.1a1.977,1.977,0,0,1,2.788,0l11.18,11.1A1.855,1.855,0,0,1,33.532,40.817ZM43.715,12.175,32.363.812A2.781,2.781,0,0,0,30.392,0h-.707V14.842H44.527v-.707A2.774,2.774,0,0,0,43.715,12.175Z" fill="#354579"/>
</svg>
